<mxfile host="app.diagrams.net" modified="2022-05-12T11:12:35.318Z" agent="5.0 (Macintosh; Intel Mac OS X 10_15_7) AppleWebKit/605.1.15 (KHTML, like Gecko) Version/15.4 Safari/605.1.15" etag="8g50aMk9LoCZEkfxEk7a" version="18.0.3" type="github">
  <diagram id="C5RBs43oDa-KdzZeNtuy" name="Page-1">
    <mxGraphModel dx="833" dy="1091" grid="1" gridSize="10" guides="1" tooltips="1" connect="1" arrows="1" fold="1" page="1" pageScale="1" pageWidth="827" pageHeight="1169" math="0" shadow="0">
      <root>
        <mxCell id="WIyWlLk6GJQsqaUBKTNV-0" />
        <mxCell id="WIyWlLk6GJQsqaUBKTNV-1" parent="WIyWlLk6GJQsqaUBKTNV-0" />
        <mxCell id="phviXUYPvW_98J3S2E8r-39" value="" style="rounded=0;html=1;jettySize=auto;orthogonalLoop=1;fontSize=11;endArrow=block;endFill=0;endSize=8;strokeWidth=1;shadow=0;labelBackgroundColor=none;edgeStyle=orthogonalEdgeStyle;" edge="1" parent="WIyWlLk6GJQsqaUBKTNV-1" source="phviXUYPvW_98J3S2E8r-40" target="phviXUYPvW_98J3S2E8r-43">
          <mxGeometry relative="1" as="geometry" />
        </mxCell>
        <mxCell id="phviXUYPvW_98J3S2E8r-40" value="Finalise a prospect supplier" style="rounded=1;whiteSpace=wrap;html=1;fontSize=12;glass=0;strokeWidth=1;shadow=0;" vertex="1" parent="WIyWlLk6GJQsqaUBKTNV-1">
          <mxGeometry x="180" y="150" width="120" height="40" as="geometry" />
        </mxCell>
        <mxCell id="phviXUYPvW_98J3S2E8r-41" value="Yes" style="rounded=0;html=1;jettySize=auto;orthogonalLoop=1;fontSize=11;endArrow=block;endFill=0;endSize=8;strokeWidth=1;shadow=0;labelBackgroundColor=none;edgeStyle=orthogonalEdgeStyle;" edge="1" parent="WIyWlLk6GJQsqaUBKTNV-1" source="phviXUYPvW_98J3S2E8r-43" target="phviXUYPvW_98J3S2E8r-48">
          <mxGeometry y="20" relative="1" as="geometry">
            <mxPoint as="offset" />
          </mxGeometry>
        </mxCell>
        <mxCell id="phviXUYPvW_98J3S2E8r-42" value="No" style="edgeStyle=orthogonalEdgeStyle;rounded=0;html=1;jettySize=auto;orthogonalLoop=1;fontSize=11;endArrow=block;endFill=0;endSize=8;strokeWidth=1;shadow=0;labelBackgroundColor=none;" edge="1" parent="WIyWlLk6GJQsqaUBKTNV-1" source="phviXUYPvW_98J3S2E8r-43" target="phviXUYPvW_98J3S2E8r-45">
          <mxGeometry y="10" relative="1" as="geometry">
            <mxPoint as="offset" />
          </mxGeometry>
        </mxCell>
        <mxCell id="phviXUYPvW_98J3S2E8r-43" value="Accept the quote?" style="rhombus;whiteSpace=wrap;html=1;shadow=0;fontFamily=Helvetica;fontSize=12;align=center;strokeWidth=1;spacing=6;spacingTop=-4;" vertex="1" parent="WIyWlLk6GJQsqaUBKTNV-1">
          <mxGeometry x="180" y="250" width="120" height="90" as="geometry" />
        </mxCell>
        <mxCell id="phviXUYPvW_98J3S2E8r-44" style="edgeStyle=orthogonalEdgeStyle;rounded=0;orthogonalLoop=1;jettySize=auto;html=1;" edge="1" parent="WIyWlLk6GJQsqaUBKTNV-1" source="phviXUYPvW_98J3S2E8r-45">
          <mxGeometry relative="1" as="geometry">
            <mxPoint x="240" y="220" as="targetPoint" />
            <Array as="points">
              <mxPoint x="430" y="220" />
            </Array>
          </mxGeometry>
        </mxCell>
        <mxCell id="phviXUYPvW_98J3S2E8r-45" value="Negotiation" style="rounded=1;whiteSpace=wrap;html=1;fontSize=12;glass=0;strokeWidth=1;shadow=0;" vertex="1" parent="WIyWlLk6GJQsqaUBKTNV-1">
          <mxGeometry x="380" y="275" width="120" height="40" as="geometry" />
        </mxCell>
        <mxCell id="phviXUYPvW_98J3S2E8r-46" value="No" style="rounded=0;html=1;jettySize=auto;orthogonalLoop=1;fontSize=11;endArrow=block;endFill=0;endSize=8;strokeWidth=1;shadow=0;labelBackgroundColor=none;edgeStyle=orthogonalEdgeStyle;" edge="1" parent="WIyWlLk6GJQsqaUBKTNV-1" source="phviXUYPvW_98J3S2E8r-48">
          <mxGeometry x="0.3333" y="20" relative="1" as="geometry">
            <mxPoint as="offset" />
            <mxPoint x="240" y="550" as="targetPoint" />
          </mxGeometry>
        </mxCell>
        <mxCell id="phviXUYPvW_98J3S2E8r-47" value="Yes" style="edgeStyle=orthogonalEdgeStyle;rounded=0;html=1;jettySize=auto;orthogonalLoop=1;fontSize=11;endArrow=block;endFill=0;endSize=8;strokeWidth=1;shadow=0;labelBackgroundColor=none;" edge="1" parent="WIyWlLk6GJQsqaUBKTNV-1" source="phviXUYPvW_98J3S2E8r-48" target="phviXUYPvW_98J3S2E8r-51">
          <mxGeometry y="10" relative="1" as="geometry">
            <mxPoint as="offset" />
          </mxGeometry>
        </mxCell>
        <mxCell id="phviXUYPvW_98J3S2E8r-48" value="Pass the sample inspection?" style="rhombus;whiteSpace=wrap;html=1;shadow=0;fontFamily=Helvetica;fontSize=12;align=center;strokeWidth=1;spacing=6;spacingTop=-4;" vertex="1" parent="WIyWlLk6GJQsqaUBKTNV-1">
          <mxGeometry x="170" y="380" width="140" height="110" as="geometry" />
        </mxCell>
        <mxCell id="phviXUYPvW_98J3S2E8r-49" style="edgeStyle=orthogonalEdgeStyle;rounded=0;orthogonalLoop=1;jettySize=auto;html=1;entryX=0;entryY=0.5;entryDx=0;entryDy=0;" edge="1" parent="WIyWlLk6GJQsqaUBKTNV-1" target="phviXUYPvW_98J3S2E8r-77">
          <mxGeometry relative="1" as="geometry">
            <mxPoint x="170" y="110" as="targetPoint" />
            <mxPoint x="240" y="510" as="sourcePoint" />
            <Array as="points">
              <mxPoint x="240" y="550" />
              <mxPoint x="60" y="550" />
              <mxPoint x="60" y="80" />
            </Array>
          </mxGeometry>
        </mxCell>
        <mxCell id="phviXUYPvW_98J3S2E8r-50" style="edgeStyle=orthogonalEdgeStyle;rounded=0;orthogonalLoop=1;jettySize=auto;html=1;entryX=0;entryY=0.5;entryDx=0;entryDy=0;" edge="1" parent="WIyWlLk6GJQsqaUBKTNV-1" source="phviXUYPvW_98J3S2E8r-51" target="phviXUYPvW_98J3S2E8r-55">
          <mxGeometry relative="1" as="geometry" />
        </mxCell>
        <mxCell id="phviXUYPvW_98J3S2E8r-51" value="Contract accepted" style="rounded=1;whiteSpace=wrap;html=1;fontSize=12;glass=0;strokeWidth=1;shadow=0;" vertex="1" parent="WIyWlLk6GJQsqaUBKTNV-1">
          <mxGeometry x="350" y="415" width="120" height="40" as="geometry" />
        </mxCell>
        <mxCell id="phviXUYPvW_98J3S2E8r-52" style="edgeStyle=orthogonalEdgeStyle;rounded=0;orthogonalLoop=1;jettySize=auto;html=1;exitX=0.5;exitY=1;exitDx=0;exitDy=0;" edge="1" parent="WIyWlLk6GJQsqaUBKTNV-1" source="phviXUYPvW_98J3S2E8r-48" target="phviXUYPvW_98J3S2E8r-48">
          <mxGeometry relative="1" as="geometry" />
        </mxCell>
        <mxCell id="phviXUYPvW_98J3S2E8r-53" value="" style="edgeStyle=orthogonalEdgeStyle;rounded=0;orthogonalLoop=1;jettySize=auto;html=1;" edge="1" parent="WIyWlLk6GJQsqaUBKTNV-1" source="phviXUYPvW_98J3S2E8r-77" target="phviXUYPvW_98J3S2E8r-40">
          <mxGeometry relative="1" as="geometry" />
        </mxCell>
        <mxCell id="phviXUYPvW_98J3S2E8r-54" style="edgeStyle=orthogonalEdgeStyle;rounded=0;orthogonalLoop=1;jettySize=auto;html=1;entryX=0;entryY=0.5;entryDx=0;entryDy=0;" edge="1" parent="WIyWlLk6GJQsqaUBKTNV-1" source="phviXUYPvW_98J3S2E8r-55" target="phviXUYPvW_98J3S2E8r-57">
          <mxGeometry relative="1" as="geometry" />
        </mxCell>
        <mxCell id="phviXUYPvW_98J3S2E8r-55" value="Informing warehouse" style="rounded=1;whiteSpace=wrap;html=1;fontSize=12;glass=0;strokeWidth=1;shadow=0;" vertex="1" parent="WIyWlLk6GJQsqaUBKTNV-1">
          <mxGeometry x="500" y="415" width="120" height="40" as="geometry" />
        </mxCell>
        <mxCell id="phviXUYPvW_98J3S2E8r-56" style="edgeStyle=orthogonalEdgeStyle;rounded=0;orthogonalLoop=1;jettySize=auto;html=1;exitX=0.5;exitY=0;exitDx=0;exitDy=0;entryX=0.5;entryY=1;entryDx=0;entryDy=0;" edge="1" parent="WIyWlLk6GJQsqaUBKTNV-1" source="phviXUYPvW_98J3S2E8r-57" target="phviXUYPvW_98J3S2E8r-59">
          <mxGeometry relative="1" as="geometry" />
        </mxCell>
        <mxCell id="phviXUYPvW_98J3S2E8r-57" value="Discuss shipping details" style="rounded=1;whiteSpace=wrap;html=1;fontSize=12;glass=0;strokeWidth=1;shadow=0;" vertex="1" parent="WIyWlLk6GJQsqaUBKTNV-1">
          <mxGeometry x="650" y="415" width="120" height="40" as="geometry" />
        </mxCell>
        <mxCell id="phviXUYPvW_98J3S2E8r-58" style="edgeStyle=orthogonalEdgeStyle;rounded=0;orthogonalLoop=1;jettySize=auto;html=1;entryX=0.5;entryY=1;entryDx=0;entryDy=0;" edge="1" parent="WIyWlLk6GJQsqaUBKTNV-1" source="phviXUYPvW_98J3S2E8r-59" target="phviXUYPvW_98J3S2E8r-61">
          <mxGeometry relative="1" as="geometry" />
        </mxCell>
        <mxCell id="phviXUYPvW_98J3S2E8r-59" value="Shippment to Southampton port" style="rounded=1;whiteSpace=wrap;html=1;fontSize=12;glass=0;strokeWidth=1;shadow=0;" vertex="1" parent="WIyWlLk6GJQsqaUBKTNV-1">
          <mxGeometry x="650" y="338" width="120" height="40" as="geometry" />
        </mxCell>
        <mxCell id="phviXUYPvW_98J3S2E8r-60" style="edgeStyle=orthogonalEdgeStyle;rounded=0;orthogonalLoop=1;jettySize=auto;html=1;entryX=0;entryY=0.5;entryDx=0;entryDy=0;" edge="1" parent="WIyWlLk6GJQsqaUBKTNV-1" source="phviXUYPvW_98J3S2E8r-61" target="phviXUYPvW_98J3S2E8r-63">
          <mxGeometry relative="1" as="geometry" />
        </mxCell>
        <mxCell id="phviXUYPvW_98J3S2E8r-61" value="Customs clearance and paperwork" style="rounded=1;whiteSpace=wrap;html=1;fontSize=12;glass=0;strokeWidth=1;shadow=0;" vertex="1" parent="WIyWlLk6GJQsqaUBKTNV-1">
          <mxGeometry x="650" y="250" width="120" height="40" as="geometry" />
        </mxCell>
        <mxCell id="phviXUYPvW_98J3S2E8r-62" style="edgeStyle=orthogonalEdgeStyle;rounded=0;orthogonalLoop=1;jettySize=auto;html=1;exitX=0.5;exitY=1;exitDx=0;exitDy=0;entryX=0.5;entryY=0;entryDx=0;entryDy=0;" edge="1" parent="WIyWlLk6GJQsqaUBKTNV-1" source="phviXUYPvW_98J3S2E8r-63" target="phviXUYPvW_98J3S2E8r-65">
          <mxGeometry relative="1" as="geometry" />
        </mxCell>
        <mxCell id="phviXUYPvW_98J3S2E8r-63" value="Goods sent to Milton Keynes" style="rounded=1;whiteSpace=wrap;html=1;fontSize=12;glass=0;strokeWidth=1;shadow=0;" vertex="1" parent="WIyWlLk6GJQsqaUBKTNV-1">
          <mxGeometry x="860" y="250" width="120" height="40" as="geometry" />
        </mxCell>
        <mxCell id="phviXUYPvW_98J3S2E8r-64" style="edgeStyle=orthogonalEdgeStyle;rounded=0;orthogonalLoop=1;jettySize=auto;html=1;entryX=0.5;entryY=0;entryDx=0;entryDy=0;" edge="1" parent="WIyWlLk6GJQsqaUBKTNV-1" source="phviXUYPvW_98J3S2E8r-65" target="phviXUYPvW_98J3S2E8r-67">
          <mxGeometry relative="1" as="geometry" />
        </mxCell>
        <mxCell id="phviXUYPvW_98J3S2E8r-65" value="Quality control" style="rounded=1;whiteSpace=wrap;html=1;fontSize=12;glass=0;strokeWidth=1;shadow=0;" vertex="1" parent="WIyWlLk6GJQsqaUBKTNV-1">
          <mxGeometry x="860" y="340" width="120" height="40" as="geometry" />
        </mxCell>
        <mxCell id="phviXUYPvW_98J3S2E8r-66" style="edgeStyle=orthogonalEdgeStyle;rounded=0;orthogonalLoop=1;jettySize=auto;html=1;" edge="1" parent="WIyWlLk6GJQsqaUBKTNV-1" source="phviXUYPvW_98J3S2E8r-67" target="phviXUYPvW_98J3S2E8r-72">
          <mxGeometry relative="1" as="geometry" />
        </mxCell>
        <mxCell id="phviXUYPvW_98J3S2E8r-67" value="Division of cartons across 550 stores" style="rounded=1;whiteSpace=wrap;html=1;fontSize=12;glass=0;strokeWidth=1;shadow=0;" vertex="1" parent="WIyWlLk6GJQsqaUBKTNV-1">
          <mxGeometry x="860" y="415" width="120" height="40" as="geometry" />
        </mxCell>
        <mxCell id="phviXUYPvW_98J3S2E8r-68" style="edgeStyle=orthogonalEdgeStyle;rounded=0;orthogonalLoop=1;jettySize=auto;html=1;" edge="1" parent="WIyWlLk6GJQsqaUBKTNV-1" source="phviXUYPvW_98J3S2E8r-72" target="phviXUYPvW_98J3S2E8r-73">
          <mxGeometry relative="1" as="geometry" />
        </mxCell>
        <mxCell id="phviXUYPvW_98J3S2E8r-69" value="No" style="edgeLabel;html=1;align=center;verticalAlign=middle;resizable=0;points=[];" vertex="1" connectable="0" parent="phviXUYPvW_98J3S2E8r-68">
          <mxGeometry x="-0.16" relative="1" as="geometry">
            <mxPoint x="10" as="offset" />
          </mxGeometry>
        </mxCell>
        <mxCell id="phviXUYPvW_98J3S2E8r-70" style="edgeStyle=orthogonalEdgeStyle;rounded=0;orthogonalLoop=1;jettySize=auto;html=1;entryX=1;entryY=0.5;entryDx=0;entryDy=0;" edge="1" parent="WIyWlLk6GJQsqaUBKTNV-1" source="phviXUYPvW_98J3S2E8r-72" target="phviXUYPvW_98J3S2E8r-40">
          <mxGeometry relative="1" as="geometry">
            <mxPoint x="1110" y="150" as="targetPoint" />
            <Array as="points">
              <mxPoint x="1110" y="170" />
            </Array>
          </mxGeometry>
        </mxCell>
        <mxCell id="phviXUYPvW_98J3S2E8r-71" value="Yes" style="edgeLabel;html=1;align=center;verticalAlign=middle;resizable=0;points=[];" vertex="1" connectable="0" parent="phviXUYPvW_98J3S2E8r-70">
          <mxGeometry x="-0.9184" y="1" relative="1" as="geometry">
            <mxPoint x="11" as="offset" />
          </mxGeometry>
        </mxCell>
        <mxCell id="phviXUYPvW_98J3S2E8r-72" value="Low inventory?" style="rhombus;whiteSpace=wrap;html=1;shadow=0;fontFamily=Helvetica;fontSize=12;align=center;strokeWidth=1;spacing=6;spacingTop=-4;" vertex="1" parent="WIyWlLk6GJQsqaUBKTNV-1">
          <mxGeometry x="1050" y="390" width="120" height="90" as="geometry" />
        </mxCell>
        <mxCell id="phviXUYPvW_98J3S2E8r-73" value="Keep track of inventory" style="rounded=1;whiteSpace=wrap;html=1;fontSize=12;glass=0;strokeWidth=1;shadow=0;" vertex="1" parent="WIyWlLk6GJQsqaUBKTNV-1">
          <mxGeometry x="1050" y="540" width="120" height="40" as="geometry" />
        </mxCell>
        <mxCell id="phviXUYPvW_98J3S2E8r-74" value="" style="shape=mxgraph.signs.transportation.ship_2;html=1;pointerEvents=1;fillColor=#000000;strokeColor=none;verticalLabelPosition=bottom;verticalAlign=top;align=center;" vertex="1" parent="WIyWlLk6GJQsqaUBKTNV-1">
          <mxGeometry x="650" y="300" width="29.47" height="28" as="geometry" />
        </mxCell>
        <mxCell id="phviXUYPvW_98J3S2E8r-75" value="" style="shape=mxgraph.signs.food.food_truck;html=1;pointerEvents=1;fillColor=#000000;strokeColor=none;verticalLabelPosition=bottom;verticalAlign=top;align=center;" vertex="1" parent="WIyWlLk6GJQsqaUBKTNV-1">
          <mxGeometry x="800" y="240" width="40" height="20" as="geometry" />
        </mxCell>
        <mxCell id="phviXUYPvW_98J3S2E8r-76" value="" style="shape=mxgraph.signs.transportation.truck_6;html=1;pointerEvents=1;fillColor=#000000;strokeColor=none;verticalLabelPosition=bottom;verticalAlign=top;align=center;" vertex="1" parent="WIyWlLk6GJQsqaUBKTNV-1">
          <mxGeometry x="940" y="385.99999999999994" width="19" height="23.57" as="geometry" />
        </mxCell>
        <mxCell id="phviXUYPvW_98J3S2E8r-77" value="Search suppliers for snack sausages in China" style="rounded=1;whiteSpace=wrap;html=1;fontSize=12;glass=0;strokeWidth=1;shadow=0;" vertex="1" parent="WIyWlLk6GJQsqaUBKTNV-1">
          <mxGeometry x="180" y="50" width="120" height="60" as="geometry" />
        </mxCell>
      </root>
    </mxGraphModel>
  </diagram>
</mxfile>
